<svg width="32" height="32" viewBox="0 0 32 32" fill="none" xmlns="http://www.w3.org/2000/svg">
<g id="vuesax/linear/building">
<g id="building">
<path id="Vector" d="M16.667 29.3334H5.44029C3.89362 29.3334 2.62695 28.0934 2.62695 26.5734V6.78673C2.62695 3.29339 5.22695 1.70673 8.41362 3.26673L14.3336 6.17339C15.6136 6.80006 16.667 8.46672 16.667 9.88006V29.3334Z" stroke="#64656D" stroke-width="2" stroke-linecap="round" stroke-linejoin="round"/>
<path id="Vector_2" d="M29.2937 20.0802V25.1202C29.2937 28.0002 27.9603 29.3336 25.0803 29.3336H16.667V13.8936L17.2937 14.0269L23.2937 15.3736L26.0003 15.9736C27.7603 16.3602 29.2003 17.2669 29.2803 19.8269C29.2937 19.9069 29.2937 19.9869 29.2937 20.0802Z" stroke="#64656D" stroke-width="2" stroke-linecap="round" stroke-linejoin="round"/>
<path id="Vector_3" d="M7.33301 12.0002H11.9597" stroke="#64656D" stroke-width="2" stroke-linecap="round" stroke-linejoin="round"/>
<path id="Vector_4" d="M7.33301 17.3335H11.9597" stroke="#64656D" stroke-width="2" stroke-linecap="round" stroke-linejoin="round"/>
<path id="Vector_5" d="M23.293 15.3735V19.6669C23.293 21.3202 21.9463 22.6669 20.293 22.6669C18.6396 22.6669 17.293 21.3202 17.293 19.6669V14.0269L23.293 15.3735Z" stroke="#64656D" stroke-width="2" stroke-linecap="round" stroke-linejoin="round"/>
<path id="Vector_6" d="M29.2796 19.8269C29.1996 21.4002 27.893 22.6669 26.293 22.6669C24.6396 22.6669 23.293 21.3202 23.293 19.6669V15.3735L25.9996 15.9735C27.7596 16.3602 29.1996 17.2669 29.2796 19.8269Z" stroke="#64656D" stroke-width="2" stroke-linecap="round" stroke-linejoin="round"/>
</g>
</g>
</svg>
